<svg xmlns="http://www.w3.org/2000/svg" width="27.476" height="19.75" viewBox="0 0 27.476 19.75"><defs><style>.a{fill:#39b29d;}</style></defs><g transform="translate(0 -40.217)"><path class="a" d="M22.251,47.209A7.689,7.689,0,0,0,7.6,44.708a3.8,3.8,0,0,0-1.162-.2,3.865,3.865,0,0,0-3.864,3.864,3.811,3.811,0,0,0,.211,1.206A5.564,5.564,0,0,0,5.582,59.965v0H21.037v0a6.435,6.435,0,0,0,1.214-12.756Zm-5.267,4.944H15.456V55.6a.859.859,0,0,1-.859.86H12.88a.86.86,0,0,1-.859-.86V52.153H10.492c-.933,0-1.313-.623-.848-1.382l3.247-3.2c.636-.635,1.039-.657,1.7,0l3.247,3.2C18.3,51.531,17.917,52.153,16.984,52.153Z"/></g></svg>