<svg xmlns="http://www.w3.org/2000/svg" width="16.616" height="20.626" viewBox="0 0 16.616 20.626"><defs><style>.a{fill:#002b54;stroke:#002b54;stroke-width:0.5px;}</style></defs><g transform="translate(-48.4 0.25)"><g transform="translate(48.65)"><path class="a" d="M59.6,85.4H50.241a1.592,1.592,0,0,0-1.591,1.591v13.424a1.592,1.592,0,0,0,1.591,1.591H59.6a1.592,1.592,0,0,0,1.591-1.591V86.991A1.6,1.6,0,0,0,59.6,85.4Zm.474,15.011a.478.478,0,0,1-.478.478H50.237a.478.478,0,0,1-.478-.478V86.991a.478.478,0,0,1,.478-.478h9.356a.478.478,0,0,1,.478.478Z" transform="translate(-48.65 -81.88)"/><path class="a" d="M146.4,0h-9.356a1.592,1.592,0,0,0-1.591,1.591.556.556,0,0,0,1.113,0,.478.478,0,0,1,.478-.478H146.4a.478.478,0,0,1,.478.478V15.015a.478.478,0,0,1-.478.478.556.556,0,1,0,0,1.113,1.592,1.592,0,0,0,1.591-1.591V1.591A1.592,1.592,0,0,0,146.4,0Z" transform="translate(-131.872)"/></g></g></svg>