<svg xmlns="http://www.w3.org/2000/svg" width="18.387" height="22.679" viewBox="0 0 18.387 22.679"><defs><style>.a{fill:#002b55;stroke:#002b55;stroke-width:0.25px;}</style></defs><g transform="translate(-46.03 0.125)"><g transform="translate(46.155)"><path class="a" d="M61.73,2.687H58.239a3.035,3.035,0,0,0-6.03,0H48.717A2.565,2.565,0,0,0,46.155,5.25v.131a2.565,2.565,0,0,0,1.619,2.38V19.867a2.565,2.565,0,0,0,2.562,2.562h9.774a2.565,2.565,0,0,0,2.562-2.562V7.762a2.565,2.565,0,0,0,1.619-2.38V5.25A2.565,2.565,0,0,0,61.73,2.687ZM55.224,1.215a1.824,1.824,0,0,1,1.787,1.472H53.437A1.824,1.824,0,0,1,55.224,1.215Zm6.234,18.651a1.349,1.349,0,0,1-1.347,1.347H50.337a1.349,1.349,0,0,1-1.347-1.347V7.944H61.458ZM63.077,5.381A1.349,1.349,0,0,1,61.73,6.728H48.717A1.349,1.349,0,0,1,47.37,5.381V5.25A1.349,1.349,0,0,1,48.717,3.9H61.73A1.349,1.349,0,0,1,63.077,5.25v.131Z" transform="translate(-46.155)"/><path class="a" d="M158.683,257.628a.608.608,0,0,0,.608-.608v-6.841a.608.608,0,1,0-1.215,0v6.841A.608.608,0,0,0,158.683,257.628Z" transform="translate(-152.872 -237.968)"/><path class="a" d="M228.753,257.628a.608.608,0,0,0,.608-.608v-6.841a.608.608,0,1,0-1.215,0v6.841A.608.608,0,0,0,228.753,257.628Z" transform="translate(-219.684 -237.968)"/><path class="a" d="M298.822,257.628a.608.608,0,0,0,.608-.608v-6.841a.608.608,0,1,0-1.215,0v6.841A.608.608,0,0,0,298.822,257.628Z" transform="translate(-286.495 -237.968)"/></g></g></svg>