<svg xmlns="http://www.w3.org/2000/svg" width="25.778" height="24.168" viewBox="0 0 25.778 24.168"><defs><style>.a{fill:#eceff1;}.b{fill:#388e3c;}.c{fill:#2e7d32;}.d{fill:#fafafa;}</style></defs><g transform="translate(0 -15.989)"><path class="a" d="M268.083,97.733H256.806a.806.806,0,0,1-.806-.806V80.817a.806.806,0,0,1,.806-.806h11.278a.806.806,0,0,1,.806.806V96.927A.806.806,0,0,1,268.083,97.733Z" transform="translate(-243.111 -60.798)"/><g transform="translate(12.889 22.435)"><path class="b" d="M260.028,145.622h-3.222a.806.806,0,0,1,0-1.611h3.222a.806.806,0,0,1,0,1.611Z" transform="translate(-256 -144.011)"/><path class="b" d="M260.028,209.622h-3.222a.806.806,0,0,1,0-1.611h3.222a.806.806,0,0,1,0,1.611Z" transform="translate(-256 -204.789)"/><path class="b" d="M260.028,273.622h-3.222a.806.806,0,0,1,0-1.611h3.222a.806.806,0,0,1,0,1.611Z" transform="translate(-256 -265.567)"/><path class="b" d="M260.028,337.622h-3.222a.806.806,0,0,1,0-1.611h3.222a.806.806,0,0,1,0,1.611Z" transform="translate(-256 -326.344)"/><path class="b" d="M386.417,145.622h-1.611a.806.806,0,0,1,0-1.611h1.611a.806.806,0,0,1,0,1.611Z" transform="translate(-377.556 -144.011)"/><path class="b" d="M386.417,209.622h-1.611a.806.806,0,0,1,0-1.611h1.611a.806.806,0,0,1,0,1.611Z" transform="translate(-377.556 -204.789)"/><path class="b" d="M386.417,273.622h-1.611a.806.806,0,0,1,0-1.611h1.611a.806.806,0,0,1,0,1.611Z" transform="translate(-377.556 -265.567)"/><path class="b" d="M386.417,337.622h-1.611a.806.806,0,0,1,0-1.611h1.611a.806.806,0,0,1,0,1.611Z" transform="translate(-377.556 -326.344)"/></g><path class="c" d="M14.208,16.176a.792.792,0,0,0-.662-.171L.657,18.422A.8.8,0,0,0,0,19.213V36.935a.8.8,0,0,0,.657.791l12.889,2.417a.758.758,0,0,0,.148.015.806.806,0,0,0,.806-.806V16.8A.8.8,0,0,0,14.208,16.176Z" transform="translate(0 0)"/><path class="d" d="M87.035,167.551l-2.547-2.911,2.576-3.312a.806.806,0,0,0-1.271-.991L83.406,163.4l-2.011-2.3a.8.8,0,0,0-1.212,1.06L82.4,164.7l-2.246,2.887a.806.806,0,0,0,1.273.989l2.054-2.642,2.343,2.676a.8.8,0,1,0,1.212-1.058Z" transform="translate(-75.957 -136.785)"/></g></svg>