<svg xmlns="http://www.w3.org/2000/svg" xmlns:xlink="http://www.w3.org/1999/xlink" width="137.33" height="137.33" viewBox="0 0 137.33 137.33"><defs><style>.a{fill:#06baf1;}.b{fill:#fff;stroke:#fff;}.c{filter:url(#a);}</style><filter id="a" x="0" y="0" width="137.33" height="137.33" filterUnits="userSpaceOnUse"><feOffset dy="10" input="SourceAlpha"/><feGaussianBlur stdDeviation="10" result="b"/><feFlood flood-opacity="0.129"/><feComposite operator="in" in2="b"/><feComposite in="SourceGraphic"/></filter></defs><g transform="translate(-1754.5 -935)"><g class="c" transform="matrix(1, 0, 0, 1, 1754.5, 935)"><circle class="a" cx="38.665" cy="38.665" r="38.665" transform="translate(30 20)"/></g><g transform="translate(1806.369 950.4)"><g transform="translate(-0.76 30.323)"><g transform="translate(0 0)"><path class="b" d="M31.724,39.143H24.591V34.048a3.06,3.06,0,0,0-3.057-3.057H3.057A3.06,3.06,0,0,0,0,34.048V46.275a3.06,3.06,0,0,0,3.057,3.057H4.076v3.057a1.02,1.02,0,0,0,1.584.848l4.53-3.02v4.21a3.06,3.06,0,0,0,3.057,3.057H23.263l5.857,3.9a1.019,1.019,0,0,0,1.584-.848V57.484h1.019a3.06,3.06,0,0,0,3.057-3.057V42.2A3.06,3.06,0,0,0,31.724,39.143ZM10.641,47.467l0,0L6.114,50.485V48.313a1.019,1.019,0,0,0-1.019-1.019H3.057a1.02,1.02,0,0,1-1.019-1.019V34.048a1.02,1.02,0,0,1,1.019-1.019H21.534a1.02,1.02,0,0,1,1.019,1.019V46.275a1.02,1.02,0,0,1-1.019,1.019H11.209A1.035,1.035,0,0,0,10.641,47.467Zm22.1,6.96a1.02,1.02,0,0,1-1.019,1.019H29.686a1.019,1.019,0,0,0-1.019,1.019v2.172l-4.53-3.02a1.019,1.019,0,0,0-.565-.171H13.246a1.02,1.02,0,0,1-1.019-1.019V49.332h9.306a3.06,3.06,0,0,0,3.057-3.057V41.181h7.133A1.02,1.02,0,0,1,32.743,42.2Z" transform="translate(0 -30.991)"/></g></g></g></g></svg>