<svg xmlns="http://www.w3.org/2000/svg" width="44.492" height="44.491" viewBox="0 0 44.492 44.491"><defs><style>.a{fill:#00b8f1;stroke:#00b8f1;}</style></defs><g transform="translate(22.246 0.707) rotate(45)"><g transform="translate(0 0)"><g transform="translate(0 0)"><path class="a" d="M30.454.575a.62.62,0,0,0-.021-.1A.687.687,0,0,0,30.39.364c-.009-.019-.013-.04-.024-.058a.408.408,0,0,0-.028-.031.687.687,0,0,0-.075-.084.647.647,0,0,0-.085-.074C30.167.109,30.16.1,30.148.091A.627.627,0,0,0,30.09.068.689.689,0,0,0,29.98.023a.7.7,0,0,0-.1-.017A.679.679,0,0,0,29.766,0a.6.6,0,0,0-.107.018.61.61,0,0,0-.068.011L.449,9.965a.662.662,0,0,0-.023,1.245l13.615,5.232,5.883,13.62a.663.663,0,0,0,.608.4h.033a.663.663,0,0,0,.6-.46L30.436.857a.5.5,0,0,0,.009-.063A.626.626,0,0,0,30.46.684.66.66,0,0,0,30.454.575ZM2.606,10.628,27.322,2.2,14.374,15.149ZM20.437,27.91,15.324,16.073,28.348,3.049Z" transform="translate(0)"/></g></g></g></svg>