<svg xmlns="http://www.w3.org/2000/svg" width="27.3" height="35.608" viewBox="0 0 27.3 35.608"><g transform="translate(-0.109 0)"><path d="M.109,57.5V88.356A.594.594,0,0,0,.7,88.95H23.255a.593.593,0,0,0,.593-.594V63.431c0-.013-.006-.024-.008-.037a.56.56,0,0,0-.03-.153c-.007-.019-.011-.037-.02-.056a.587.587,0,0,0-.119-.174l-5.935-5.935a.576.576,0,0,0-.175-.119.535.535,0,0,0-.055-.02.588.588,0,0,0-.154-.031c-.01,0-.022,0-.034,0H.7a.593.593,0,0,0-.594.593Zm21.713,5.341H17.914V58.928ZM1.3,58.089H16.727v5.341a.593.593,0,0,0,.593.593h5.341V87.763H1.3Zm0,0" transform="translate(0 -53.342)"/><path d="M78.373,30.861v1.187h1.78a.593.593,0,0,0,.594-.593V.593A.594.594,0,0,0,80.153,0H57.6a.594.594,0,0,0-.594.594v1.78h1.187V1.187H79.56V30.86Zm0,0" transform="translate(-53.338)"/><path d="M75.977,189.668H90.22v1.187H75.977Zm0,0" transform="translate(-71.119 -177.799)"/><path d="M75.977,132.766h4.748v1.187H75.977Zm0,0" transform="translate(-71.119 -124.457)"/><path d="M75.977,246.566h9.5v1.187h-9.5Zm0,0" transform="translate(-71.119 -231.136)"/><path d="M246.676,246.566h3.561v1.187h-3.561Zm0,0" transform="translate(-231.136 -231.136)"/><path d="M75.977,303.465H90.22v1.187H75.977Zm0,0" transform="translate(-71.119 -284.474)"/><path d="M75.977,417.266H90.22v1.187H75.977Zm0,0" transform="translate(-71.119 -391.153)"/><path d="M161.324,360.367h8.9v1.187h-8.9Zm0,0" transform="translate(-151.126 -337.815)"/><path d="M75.977,360.367h4.154v1.187H75.977Zm0,0" transform="translate(-71.119 -337.815)"/><path d="M75.977,474.168h2.374v1.187H75.977Zm0,0" transform="translate(-71.119 -444.494)"/><path d="M132.875,474.168h10.682v1.187H132.875Zm0,0" transform="translate(-124.457 -444.494)"/></g></svg>