<svg xmlns="http://www.w3.org/2000/svg" width="33.538" height="31" viewBox="0 0 33.538 31"><defs><style>.a{fill:#002b55;}</style></defs><g transform="translate(0 -18.4)"><g transform="translate(0 18.4)"><path class="a" d="M27.276,26.5a9.715,9.715,0,0,0-18-3.228,5.565,5.565,0,0,0-1.021-.1A5.324,5.324,0,0,0,2.938,28.49a5.812,5.812,0,0,0,.11,1.1A7.4,7.4,0,0,0,0,35.559a7.91,7.91,0,0,0,2.007,5.234,7.163,7.163,0,0,0,4.966,2.5h5.986a.931.931,0,1,0,0-1.862h-5.9a5.872,5.872,0,0,1-5.193-5.876A5.528,5.528,0,0,1,4.6,30.793a.939.939,0,0,0,.407-1.131A3.378,3.378,0,0,1,4.8,28.476a3.461,3.461,0,0,1,3.455-3.455,3.4,3.4,0,0,1,1.179.207.935.935,0,0,0,1.166-.476,7.852,7.852,0,0,1,14.917,2.586.93.93,0,0,0,.772.828,6.711,6.711,0,0,1-.634,13.255H20.572a.931.931,0,1,0,0,1.862h5.186a8.251,8.251,0,0,0,5.531-2.731A8.584,8.584,0,0,0,27.276,26.5Z" transform="translate(0 -18.4)"/><path class="a" d="M169.672,191.924a.928.928,0,0,0,0-1.317l-4.931-4.931a.942.942,0,0,0-.655-.276.913.913,0,0,0-.655.276l-4.931,4.931a.935.935,0,0,0,.655,1.593.908.908,0,0,0,.655-.276l3.345-3.345v15.372a.931.931,0,0,0,1.862,0V188.579l3.345,3.345A.92.92,0,0,0,169.672,191.924Z" transform="translate(-147.313 -173.883)"/></g></g></svg>